<?xml version="1.0" encoding="UTF-8"?>
<!-- Created with Inkscape (http://www.inkscape.org/) -->
<svg width="744" height="1052" version="1.1" viewBox="0 0 196.85 278.34" xmlns="http://www.w3.org/2000/svg" xmlns:cc="http://creativecommons.org/ns#" xmlns:dc="http://purl.org/dc/elements/1.1/" xmlns:rdf="http://www.w3.org/1999/02/22-rdf-syntax-ns#">
 <defs>
  <filter id="blur" x="-.081222" y="-.047571" width="1.1624" height="1.0951" color-interpolation-filters="sRGB">
   <feGaussianBlur stdDeviation="5"/>
  </filter>
 </defs>
 <metadata>
  <rdf:RDF>
   <cc:Work rdf:about="">
    <dc:format>image/svg+xml</dc:format>
    <dc:type rdf:resource="http://purl.org/dc/dcmitype/StillImage"/>
    <dc:title/>
   </cc:Work>
  </rdf:RDF>
 </metadata>
 <g transform="translate(0 -18.658)">
  <path d="m57.713 32.88 7.9261 7.9261h89.323v-7.9261zm-9.7079 13.37a27.644 27.644 0 0 0-27.644 27.644 27.644 27.644 0 0 0 27.644 27.644 27.644 27.644 0 0 0 27.644-27.644 27.644 27.644 0 0 0-3.4003-13.28h82.563v-14.364h-106.78v5.17e-4a27.644 27.644 0 0 0-0.0258-1e-3zm0 6.8352a20.809 20.809 0 0 1 20.809 20.809 20.809 20.809 0 0 1-20.809 20.81 20.809 20.809 0 0 1-20.81-20.81 20.809 20.809 0 0 1 20.81-20.809zm0 8.4481a12.361 12.361 0 0 0-12.362 12.361 12.361 12.361 0 0 0 12.362 12.362 12.361 12.361 0 0 0 12.361-12.362 12.361 12.361 0 0 0-12.361-12.361zm33.24 4.3098v11.553h11.482v-11.553zm19.956 0v11.553h11.085v-11.553zm19.855 0v11.553h11.085v-11.553zm20.299 0v11.553h11.085v-11.553zm-59.653 20.099-5.2229 10.489h78.452v-10.489zm-17.096 20.306c0 2.5554 9.988 2.0608 9.988 3.8695l0.16537 97.367c2.4251 19.056 36.402 20.723 50.857 4.3227l0.64285-0.0119 0.31575 10.559h37.137v-1.1927c0-0.93694-10.816-1.2684-10.816-2.7011l-0.33899-112.14h-37.198c0 2.1938 10.767 2.1201 10.767 3.6458l-0.10748 87.537c-3.0684 17.783-21.82 19.112-25.185 9.6475l-0.0465-100.91zm45.654 121.8 15.25 23.572-15.539 24.212v-10.8h-16.2v-5.8766h14.555v-11.541h-14.555v-5.9082h15.778v-13.506h-35.377v50.83h34.737l2e-3 0.0703h20.126l7.4678-13.821 7.1086 13.821h20.953l-17.904-27.456 15.703-23.596h-20.743l-5.2824 10.987-5.6736-10.987z" fill="#888" fill-opacity=".65" filter="url(#blur)"/>
  <path transform="matrix(.26458 0 0 .26458 0 18.658)" d="m174.07 35.578 29.957 29.957h337.6v-29.957h-367.56z" fill="#e9b010"/>
  <path transform="matrix(.26458 0 0 .26458 0 18.658)" d="m137.48 86.111v7.7461l80.615 46.543h322.97v-54.289h-403.58z" fill="#e9b010"/>
  <path transform="matrix(.26458 0 0 .26458 0 18.658)" d="m137.38 86.109a104.48 104.48 0 0 0-104.48 104.48 104.48 104.48 0 0 0 104.48 104.48 104.48 104.48 0 0 0 104.48-104.48 104.48 104.48 0 0 0-104.48-104.48zm0 25.834a78.649 78.649 0 0 1 78.648 78.648 78.649 78.649 0 0 1-78.648 78.65 78.649 78.649 0 0 1-78.65-78.65 78.649 78.649 0 0 1 78.65-78.648z" fill="#e9b010"/>
  <circle cx="36.349" cy="69.086" r="12.361" fill="#e9b010"/>
  <rect x="129.7" y="61.034" width="11.085" height="11.553" fill="#e9b010"/>
  <rect x="109.4" y="61.034" width="11.085" height="11.553" fill="#e9b010"/>
  <rect x="89.545" y="61.034" width="11.085" height="11.553" fill="#e9b010"/>
  <rect x="69.589" y="61.034" width="11.483" height="11.553" fill="#e9b010"/>
  <path transform="matrix(.26458 0 0 .26458 0 18.658)" d="m264.74 236.13-19.74 39.643h296.51v-39.643h-276.77z" fill="#e9b010"/>
  <path d="m52.95 101.44h36.182l0.04677 100.91c3.3654 9.4642 22.117 8.136 25.185-9.6472l0.10754-87.538c0-1.5256-10.767-1.4519-10.767-3.6457h37.198l0.3391 112.14c0 1.4328 10.816 1.7642 10.816 2.7011v1.1927h-37.137l-0.31571-10.559-0.64312 0.0117c-14.455 16.4-48.432 14.734-50.857-4.3226l-0.16536-97.367c0-1.8087-9.9881-1.3142-9.9881-3.8696z" fill="#e9b010"/>
  <g fill="#03b18d">
   <rect x="62.517" y="223.39" width="35.377" height="13.505"/>
   <rect x="62.517" y="242.81" width="34.154" height="11.541"/>
   <rect x="62.517" y="260.22" width="35.798" height="13.998"/>
   <rect x="62.517" y="223.39" width="19.599" height="50.83"/>
  </g>
  <path transform="matrix(.26458 0 0 .26458 0 18.658)" d="m372.67 773.22 57.639 89.09-62.883 97.984 0.15234 5.8789h76.068l28.225-52.238 26.867 52.238h79.193l-67.67-103.77 59.35-89.184h-78.4l-19.965 41.527-21.443-41.527h-77.133z" fill="#03b18d"/>
 </g>
</svg>
