<?xml version="1.0" encoding="UTF-8"?>
<!-- Created with Inkscape (http://www.inkscape.org/) -->
<svg id="svg16" width="233" height="135" version="1.1" viewBox="0 0 61.648 35.719" xmlns="http://www.w3.org/2000/svg" xmlns:cc="http://creativecommons.org/ns#" xmlns:dc="http://purl.org/dc/elements/1.1/" xmlns:rdf="http://www.w3.org/1999/02/22-rdf-syntax-ns#">
 <metadata id="metadata2">
  <rdf:RDF>
   <cc:Work rdf:about="">
    <dc:format>image/svg+xml</dc:format>
    <dc:type rdf:resource="http://purl.org/dc/dcmitype/StillImage"/>
    <dc:title/>
   </cc:Work>
  </rdf:RDF>
 </metadata>
 <rect id="rect4" x="-1.7764e-15" y="-1.2207e-6" width="61.648" height="35.719" fill="#fff"/>
 <g id="text8" stroke-width=".31889" aria-label="ESCUELA POLITÉCNICA">
  <path id="path869" d="m1.5036 1.1545h2.3728v0.66457h-1.4936v0.63488h1.4045v0.66457h-1.4045v0.78104h1.5438v0.66457h-2.423z"/>
  <path id="path871" d="m7.0737 1.2618v0.72166q-0.2809-0.12561-0.5481-0.18955t-0.50471-0.063945q-0.31516 0-0.46588 0.086782-0.15073 0.086782-0.15073 0.26948 0 0.13702 0.10048 0.21467 0.10277 0.075363 0.36997 0.13017l0.37453 0.075363q0.56865 0.11419 0.80844 0.34713t0.23979 0.66228q0 0.56408-0.33571 0.84042-0.33343 0.27405-1.0208 0.27405-0.32429 0-0.65087-0.061661-0.32657-0.06166-0.65315-0.1827v-0.74222q0.32657 0.17356 0.63031 0.26263 0.30602 0.086782 0.5892 0.086782 0.28775 0 0.44076-0.095917t0.15301-0.27405q0-0.15986-0.10505-0.24664-0.10277-0.086782-0.41336-0.15529l-0.34028-0.075363q-0.51156-0.10962-0.74907-0.34941-0.23523-0.23979-0.23523-0.6463 0-0.50927 0.32886-0.78332 0.32886-0.27405 0.94547-0.27405 0.2809 0 0.57779 0.043391 0.29689 0.041107 0.61433 0.12561z"/>
  <path id="path873" d="m10.776 4.3768q-0.24208 0.12561-0.50471 0.18955-0.26263 0.063945-0.5481 0.063945-0.85184 0-1.3497-0.47502-0.49786-0.4773-0.49786-1.2926 0-0.81758 0.49786-1.2926 0.49786-0.4773 1.3497-0.4773 0.28547 0 0.5481 0.063945t0.50471 0.18955v0.70568q-0.24436-0.16671-0.48187-0.24436-0.23751-0.077647-0.50014-0.077647-0.47045 0-0.73993 0.30145-0.26948 0.30145-0.26948 0.83128 0 0.52754 0.26948 0.829 0.26948 0.30145 0.73993 0.30145 0.26263 0 0.50014-0.077647 0.23751-0.077647 0.48187-0.24436z"/>
  <path id="path875" d="m11.506 1.1545h0.87924v2.0439q0 0.42249 0.13702 0.60519 0.13931 0.18042 0.45218 0.18042 0.31516 0 0.45218-0.18042 0.13931-0.1827 0.13931-0.60519v-2.0439h0.87924v2.0439q0 0.72395-0.36312 1.0779-0.36312 0.35398-1.1076 0.35398-0.74222 0-1.1053-0.35398-0.36312-0.35398-0.36312-1.0779z"/>
  <path id="path877" d="m15.307 1.1545h2.3728v0.66457h-1.4936v0.63488h1.4045v0.66457h-1.4045v0.78104h1.5438v0.66457h-2.423z"/>
  <path id="path879" d="m18.504 1.1545h0.87924v2.7451h1.5438v0.66457h-2.423z"/>
  <path id="path881" d="m23.551 3.9429h-1.3748l-0.21696 0.62118h-0.88381l1.2629-3.4096h1.0482l1.2629 3.4096h-0.88381zm-1.1556-0.6326h0.93405l-0.46588-1.3565z"/>
  <path id="path883" d="m26.725 1.1545h1.4593q0.65087 0 0.998 0.29004 0.34941 0.28775 0.34941 0.82215 0 0.53668-0.34941 0.82671-0.34713 0.28775-0.998 0.28775h-0.58007v1.183h-0.87924zm0.87924 0.63716v0.95232h0.48644q0.25578 0 0.39509-0.12332 0.13931-0.12561 0.13931-0.35398 0-0.22837-0.13931-0.3517t-0.39509-0.12332z"/>
  <path id="path885" d="m31.708 1.73q-0.40194 0-0.62346 0.29689-0.22152 0.29689-0.22152 0.83585 0 0.53668 0.22152 0.83357 0.22152 0.29689 0.62346 0.29689 0.40422 0 0.62574-0.29689 0.22152-0.29689 0.22152-0.83357 0-0.53896-0.22152-0.83585-0.22152-0.29689-0.62574-0.29689zm0-0.63716q0.82215 0 1.288 0.47045t0.46588 1.2994q0 0.82671-0.46588 1.2972t-1.288 0.47045q-0.81986 0-1.288-0.47045-0.46588-0.47045-0.46588-1.2972 0-0.829 0.46588-1.2994 0.46817-0.47045 1.288-0.47045z"/>
  <path id="path887" d="m34.125 1.1545h0.87924v2.7451h1.5438v0.66457h-2.423z"/>
  <path id="path889" d="m37.103 1.1545h0.87924v3.4096h-0.87924z"/>
  <path id="path891" d="m38.441 1.1545h3.1424v0.66457h-1.1305v2.7451h-0.87924v-2.7451h-1.1327z"/>
  <path id="path893" d="m42.035 1.1545h2.3728v0.66457h-1.4936v0.63488h1.4045v0.66457h-1.4045v0.78104h1.5438v0.66457h-2.423zm1.2675-0.9272h0.6463l-0.65087 0.60291h-0.44761z"/>
  <path id="path895" d="m47.937 4.3768q-0.24208 0.12561-0.50471 0.18955-0.26263 0.063945-0.5481 0.063945-0.85184 0-1.3497-0.47502-0.49786-0.4773-0.49786-1.2926 0-0.81758 0.49786-1.2926 0.49786-0.4773 1.3497-0.4773 0.28547 0 0.5481 0.063945t0.50471 0.18955v0.70568q-0.24436-0.16671-0.48187-0.24436-0.23751-0.077647-0.50014-0.077647-0.47045 0-0.73993 0.30145-0.26948 0.30145-0.26948 0.83128 0 0.52754 0.26948 0.829 0.26948 0.30145 0.73993 0.30145 0.26263 0 0.50014-0.077647t0.48187-0.24436z"/>
  <path id="path897" d="m48.667 1.1545h0.98201l1.2401 2.3386v-2.3386h0.83357v3.4096h-0.98201l-1.2401-2.3386v2.3386h-0.83356z"/>
  <path id="path899" d="m52.586 1.1545h0.87924v3.4096h-0.87924z"/>
  <path id="path901" d="m57.035 4.3768q-0.24208 0.12561-0.50471 0.18955-0.26263 0.063945-0.5481 0.063945-0.85184 0-1.3497-0.47502-0.49786-0.4773-0.49786-1.2926 0-0.81758 0.49786-1.2926 0.49786-0.4773 1.3497-0.4773 0.28547 0 0.5481 0.063945 0.26263 0.063945 0.50471 0.18955v0.70568q-0.24436-0.16671-0.48187-0.24436-0.23751-0.077647-0.50014-0.077647-0.47045 0-0.73993 0.30145-0.26948 0.30145-0.26948 0.83128 0 0.52754 0.26948 0.829 0.26948 0.30145 0.73993 0.30145 0.26263 0 0.50014-0.077647t0.48187-0.24436z"/>
  <path id="path903" d="m59.835 3.9429h-1.3748l-0.21696 0.62118h-0.88381l1.2629-3.4096h1.0482l1.2629 3.4096h-0.88381zm-1.1556-0.6326h0.93405l-0.46588-1.3565z"/>
 </g>
 <path id="path10" d="m25.391 10.28s-5.7401 2.2126-6.7757 5.9544c-1.0357 3.7418 9.3983 5.6594 9.3983 5.6594s-3.6468-3.4272-3.4463-4.6634c-0.31926-1.1652 1.2764-3.1483 0.82376-6.9504z" fill="#fef847" stroke="#000" stroke-width="1.3229"/>
 <path id="path12" d="m29.412 10.56s0.20463 3.9817 3.5619 8.9082c2.1019 3.0844-2.9524 11.577-2.9524 11.577s12.593-5.112 13.314-11.736c0.65485-6.021-13.923-8.7497-13.923-8.7497z" fill="#496d47" stroke="#000" stroke-width="1.8521"/>
</svg>
